<?xml version="1.0" encoding="UTF-8" standalone="no"?>
<!DOCTYPE svg PUBLIC "-//W3C//DTD SVG 1.1//EN" "http://www.w3.org/Graphics/SVG/1.1/DTD/svg11.dtd">
<svg width="100%" height="100%" viewBox="0 0 763 108" version="1.1" xmlns="http://www.w3.org/2000/svg" xmlns:xlink="http://www.w3.org/1999/xlink" xml:space="preserve" xmlns:serif="http://www.serif.com/" style="fill-rule:evenodd;clip-rule:evenodd;stroke-linejoin:round;stroke-miterlimit:2;">
    <g transform="matrix(1,0,0,1,-120.509,-304.143)">
        <g transform="matrix(1,0,0,1,-243.609,85.5278)">
            <g transform="matrix(144,0,0,144,351.303,324.743)">
                <path d="M0.089,-0.719C0.112,-0.722 0.139,-0.724 0.171,-0.727C0.203,-0.729 0.234,-0.73 0.265,-0.73C0.391,-0.73 0.485,-0.698 0.548,-0.634C0.61,-0.57 0.641,-0.478 0.641,-0.358C0.641,-0.233 0.609,-0.14 0.546,-0.079C0.482,-0.018 0.387,0.012 0.261,0.012C0.23,0.012 0.199,0.011 0.168,0.008C0.137,0.006 0.111,0.003 0.089,-0L0.089,-0.719ZM0.191,-0.084C0.2,-0.083 0.212,-0.082 0.226,-0.081C0.239,-0.08 0.254,-0.079 0.269,-0.079C0.308,-0.079 0.344,-0.084 0.377,-0.093C0.409,-0.102 0.437,-0.117 0.46,-0.138C0.483,-0.159 0.501,-0.188 0.514,-0.225C0.527,-0.261 0.533,-0.306 0.533,-0.361C0.533,-0.411 0.527,-0.454 0.514,-0.489C0.501,-0.524 0.484,-0.553 0.461,-0.576C0.438,-0.598 0.41,-0.614 0.378,-0.624C0.346,-0.634 0.311,-0.639 0.272,-0.639C0.259,-0.639 0.246,-0.639 0.231,-0.639C0.216,-0.638 0.202,-0.637 0.191,-0.635L0.191,-0.084Z" style="fill:rgb(26,26,26);fill-rule:nonzero;"/>
            </g>
            <g transform="matrix(144,0,0,144,451.959,324.743)">
                <path d="M0.351,-0.241C0.341,-0.242 0.328,-0.244 0.313,-0.245C0.298,-0.246 0.285,-0.247 0.274,-0.247C0.233,-0.247 0.201,-0.239 0.18,-0.224C0.158,-0.209 0.147,-0.185 0.147,-0.154C0.147,-0.134 0.151,-0.118 0.158,-0.107C0.165,-0.096 0.174,-0.087 0.186,-0.081C0.197,-0.075 0.209,-0.071 0.222,-0.07C0.235,-0.069 0.248,-0.068 0.26,-0.068C0.275,-0.068 0.291,-0.069 0.308,-0.07C0.324,-0.072 0.338,-0.075 0.351,-0.078L0.351,-0.241ZM0.351,-0.338C0.351,-0.377 0.341,-0.405 0.321,-0.42C0.301,-0.435 0.272,-0.443 0.234,-0.443C0.211,-0.443 0.189,-0.441 0.169,-0.438C0.148,-0.434 0.128,-0.429 0.109,-0.423C0.096,-0.445 0.09,-0.471 0.09,-0.502C0.113,-0.509 0.138,-0.515 0.165,-0.519C0.192,-0.523 0.219,-0.525 0.244,-0.525C0.311,-0.525 0.361,-0.51 0.396,-0.48C0.431,-0.449 0.448,-0.401 0.448,-0.334L0.448,-0.013C0.425,-0.008 0.396,-0.002 0.363,0.003C0.33,0.009 0.296,0.012 0.261,0.012C0.228,0.012 0.199,0.009 0.172,0.003C0.146,-0.003 0.124,-0.013 0.106,-0.026C0.087,-0.039 0.073,-0.056 0.063,-0.077C0.053,-0.098 0.048,-0.123 0.048,-0.152C0.048,-0.181 0.054,-0.206 0.066,-0.228C0.077,-0.249 0.093,-0.267 0.113,-0.281C0.133,-0.296 0.156,-0.307 0.182,-0.314C0.208,-0.321 0.235,-0.324 0.264,-0.324C0.285,-0.324 0.303,-0.324 0.317,-0.323C0.33,-0.322 0.342,-0.32 0.351,-0.319L0.351,-0.338Z" style="fill:rgb(26,26,26);fill-rule:nonzero;"/>
            </g>
            <g transform="matrix(144,0,0,144,526.407,324.743)">
                <path d="M0.099,-0.434L0.021,-0.434L0.017,-0.448L0.189,-0.64L0.197,-0.64L0.197,-0.513L0.327,-0.513C0.33,-0.502 0.331,-0.489 0.331,-0.475C0.331,-0.468 0.331,-0.461 0.33,-0.454C0.329,-0.447 0.328,-0.441 0.327,-0.434L0.197,-0.434L0.197,-0.2C0.197,-0.172 0.198,-0.15 0.201,-0.133C0.203,-0.116 0.207,-0.103 0.213,-0.095C0.218,-0.086 0.226,-0.08 0.235,-0.077C0.245,-0.074 0.257,-0.072 0.272,-0.072C0.283,-0.072 0.294,-0.073 0.304,-0.075C0.314,-0.076 0.323,-0.078 0.331,-0.08C0.336,-0.067 0.339,-0.053 0.34,-0.039C0.341,-0.025 0.341,-0.013 0.341,-0.002C0.328,0.001 0.314,0.004 0.299,0.005C0.284,0.007 0.269,0.008 0.252,0.008C0.204,0.008 0.167,-0.004 0.14,-0.027C0.113,-0.05 0.099,-0.089 0.099,-0.143L0.099,-0.434Z" style="fill:rgb(26,26,26);fill-rule:nonzero;"/>
            </g>
            <g transform="matrix(144,0,0,144,577.959,324.743)">
                <path d="M0.351,-0.241C0.341,-0.242 0.328,-0.244 0.313,-0.245C0.298,-0.246 0.285,-0.247 0.274,-0.247C0.233,-0.247 0.201,-0.239 0.18,-0.224C0.158,-0.209 0.147,-0.185 0.147,-0.154C0.147,-0.134 0.151,-0.118 0.158,-0.107C0.165,-0.096 0.174,-0.087 0.186,-0.081C0.197,-0.075 0.209,-0.071 0.222,-0.07C0.235,-0.069 0.248,-0.068 0.26,-0.068C0.275,-0.068 0.291,-0.069 0.308,-0.07C0.324,-0.072 0.338,-0.075 0.351,-0.078L0.351,-0.241ZM0.351,-0.338C0.351,-0.377 0.341,-0.405 0.321,-0.42C0.301,-0.435 0.272,-0.443 0.234,-0.443C0.211,-0.443 0.189,-0.441 0.169,-0.438C0.148,-0.434 0.128,-0.429 0.109,-0.423C0.096,-0.445 0.09,-0.471 0.09,-0.502C0.113,-0.509 0.138,-0.515 0.165,-0.519C0.192,-0.523 0.219,-0.525 0.244,-0.525C0.311,-0.525 0.361,-0.51 0.396,-0.48C0.431,-0.449 0.448,-0.401 0.448,-0.334L0.448,-0.013C0.425,-0.008 0.396,-0.002 0.363,0.003C0.33,0.009 0.296,0.012 0.261,0.012C0.228,0.012 0.199,0.009 0.172,0.003C0.146,-0.003 0.124,-0.013 0.106,-0.026C0.087,-0.039 0.073,-0.056 0.063,-0.077C0.053,-0.098 0.048,-0.123 0.048,-0.152C0.048,-0.181 0.054,-0.206 0.066,-0.228C0.077,-0.249 0.093,-0.267 0.113,-0.281C0.133,-0.296 0.156,-0.307 0.182,-0.314C0.208,-0.321 0.235,-0.324 0.264,-0.324C0.285,-0.324 0.303,-0.324 0.317,-0.323C0.33,-0.322 0.342,-0.32 0.351,-0.319L0.351,-0.338Z" style="fill:rgb(26,26,26);fill-rule:nonzero;"/>
            </g>
            <g transform="matrix(144,0,0,144,652.407,324.743)">
                <path d="M0.027,-0.719C0.034,-0.72 0.043,-0.721 0.055,-0.722C0.066,-0.723 0.076,-0.723 0.085,-0.723C0.094,-0.723 0.104,-0.723 0.114,-0.722C0.123,-0.721 0.132,-0.72 0.14,-0.719L0.263,-0.12L0.411,-0.719C0.419,-0.72 0.428,-0.721 0.438,-0.722C0.447,-0.723 0.456,-0.723 0.465,-0.723C0.473,-0.723 0.482,-0.723 0.492,-0.722C0.502,-0.721 0.511,-0.72 0.518,-0.719L0.667,-0.114L0.792,-0.719C0.799,-0.72 0.807,-0.721 0.816,-0.722C0.824,-0.723 0.832,-0.723 0.84,-0.723C0.849,-0.723 0.859,-0.723 0.869,-0.722C0.878,-0.721 0.887,-0.72 0.894,-0.719L0.721,-0C0.713,0.001 0.704,0.002 0.693,0.003C0.682,0.004 0.673,0.004 0.664,0.004C0.655,0.004 0.644,0.004 0.633,0.003C0.622,0.002 0.611,0.001 0.602,-0L0.46,-0.563L0.316,-0C0.307,0.001 0.297,0.002 0.285,0.003C0.275,0.004 0.264,0.004 0.255,0.004C0.247,0.004 0.238,0.004 0.228,0.003C0.217,0.002 0.208,0.001 0.2,-0L0.027,-0.719Z" style="fill:rgb(26,26,26);fill-rule:nonzero;"/>
            </g>
            <g transform="matrix(144,0,0,144,785.031,324.743)">
                <path d="M0.079,-0.733C0.086,-0.734 0.095,-0.735 0.103,-0.736C0.113,-0.737 0.121,-0.737 0.128,-0.737C0.135,-0.737 0.144,-0.737 0.153,-0.736C0.162,-0.735 0.171,-0.734 0.178,-0.733L0.178,-0.435C0.184,-0.444 0.192,-0.454 0.201,-0.465C0.21,-0.476 0.221,-0.486 0.234,-0.495C0.247,-0.503 0.262,-0.511 0.279,-0.517C0.296,-0.522 0.314,-0.525 0.335,-0.525C0.394,-0.525 0.437,-0.508 0.466,-0.474C0.494,-0.441 0.508,-0.391 0.508,-0.325L0.508,-0C0.501,0.001 0.493,0.002 0.484,0.003C0.474,0.004 0.466,0.004 0.459,0.004C0.452,0.004 0.444,0.004 0.435,0.003C0.426,0.002 0.417,0.001 0.41,-0L0.41,-0.298C0.41,-0.345 0.402,-0.38 0.387,-0.403C0.371,-0.425 0.347,-0.436 0.315,-0.436C0.297,-0.436 0.28,-0.433 0.263,-0.427C0.246,-0.42 0.232,-0.41 0.219,-0.397C0.206,-0.383 0.196,-0.365 0.189,-0.343C0.182,-0.321 0.178,-0.294 0.178,-0.263L0.178,-0C0.171,0.001 0.162,0.002 0.153,0.003C0.144,0.004 0.135,0.004 0.128,0.004C0.121,0.004 0.113,0.004 0.104,0.003C0.095,0.002 0.086,0.001 0.079,-0L0.079,-0.733Z" style="fill:rgb(26,26,26);fill-rule:nonzero;"/>
            </g>
            <g transform="matrix(144,0,0,144,868.263,324.743)">
                <path d="M0.351,-0.241C0.341,-0.242 0.328,-0.244 0.313,-0.245C0.298,-0.246 0.285,-0.247 0.274,-0.247C0.233,-0.247 0.201,-0.239 0.18,-0.224C0.158,-0.209 0.147,-0.185 0.147,-0.154C0.147,-0.134 0.151,-0.118 0.158,-0.107C0.165,-0.096 0.174,-0.087 0.186,-0.081C0.197,-0.075 0.209,-0.071 0.222,-0.07C0.235,-0.069 0.248,-0.068 0.26,-0.068C0.275,-0.068 0.291,-0.069 0.308,-0.07C0.324,-0.072 0.338,-0.075 0.351,-0.078L0.351,-0.241ZM0.351,-0.338C0.351,-0.377 0.341,-0.405 0.321,-0.42C0.301,-0.435 0.272,-0.443 0.234,-0.443C0.211,-0.443 0.189,-0.441 0.169,-0.438C0.148,-0.434 0.128,-0.429 0.109,-0.423C0.096,-0.445 0.09,-0.471 0.09,-0.502C0.113,-0.509 0.138,-0.515 0.165,-0.519C0.192,-0.523 0.219,-0.525 0.244,-0.525C0.311,-0.525 0.361,-0.51 0.396,-0.48C0.431,-0.449 0.448,-0.401 0.448,-0.334L0.448,-0.013C0.425,-0.008 0.396,-0.002 0.363,0.003C0.33,0.009 0.296,0.012 0.261,0.012C0.228,0.012 0.199,0.009 0.172,0.003C0.146,-0.003 0.124,-0.013 0.106,-0.026C0.087,-0.039 0.073,-0.056 0.063,-0.077C0.053,-0.098 0.048,-0.123 0.048,-0.152C0.048,-0.181 0.054,-0.206 0.066,-0.228C0.077,-0.249 0.093,-0.267 0.113,-0.281C0.133,-0.296 0.156,-0.307 0.182,-0.314C0.208,-0.321 0.235,-0.324 0.264,-0.324C0.285,-0.324 0.303,-0.324 0.317,-0.323C0.33,-0.322 0.342,-0.32 0.351,-0.319L0.351,-0.338Z" style="fill:rgb(26,26,26);fill-rule:nonzero;"/>
            </g>
            <g transform="matrix(144,0,0,144,942.711,324.743)">
                <path d="M0.099,-0.434L0.021,-0.434L0.017,-0.448L0.189,-0.64L0.197,-0.64L0.197,-0.513L0.327,-0.513C0.33,-0.502 0.331,-0.489 0.331,-0.475C0.331,-0.468 0.331,-0.461 0.33,-0.454C0.329,-0.447 0.328,-0.441 0.327,-0.434L0.197,-0.434L0.197,-0.2C0.197,-0.172 0.198,-0.15 0.201,-0.133C0.203,-0.116 0.207,-0.103 0.213,-0.095C0.218,-0.086 0.226,-0.08 0.235,-0.077C0.245,-0.074 0.257,-0.072 0.272,-0.072C0.283,-0.072 0.294,-0.073 0.304,-0.075C0.314,-0.076 0.323,-0.078 0.331,-0.08C0.336,-0.067 0.339,-0.053 0.34,-0.039C0.341,-0.025 0.341,-0.013 0.341,-0.002C0.328,0.001 0.314,0.004 0.299,0.005C0.284,0.007 0.269,0.008 0.252,0.008C0.204,0.008 0.167,-0.004 0.14,-0.027C0.113,-0.05 0.099,-0.089 0.099,-0.143L0.099,-0.434Z" style="fill:rgb(26,26,26);fill-rule:nonzero;"/>
            </g>
        </g>
        <g transform="matrix(1.03715,0,0,0.848574,14.3546,85.8623)">
            <path d="M751.037,331.305C751.037,329.742 750.53,328.243 749.625,327.138C748.721,326.033 747.495,325.412 746.217,325.412L731.754,325.412C730.475,325.412 729.249,326.033 728.345,327.138C727.441,328.243 726.933,329.742 726.933,331.305L726.933,378.443C726.933,380.005 727.441,381.504 728.345,382.609C729.249,383.714 730.475,384.335 731.754,384.335L746.217,384.335C747.495,384.335 748.721,383.714 749.625,382.609C750.53,381.504 751.037,380.005 751.037,378.443L751.037,331.305Z" style="fill:rgb(66,133,244);"/>
        </g>
        <g transform="matrix(1.03715,0,0,1.27286,59.4391,-77.2059)">
            <path d="M751.037,329.341C751.037,328.299 750.53,327.3 749.625,326.563C748.721,325.826 747.495,325.412 746.217,325.412C742.016,325.412 735.955,325.412 731.754,325.412C730.475,325.412 729.249,325.826 728.345,326.563C727.441,327.3 726.933,328.299 726.933,329.341C726.933,340.054 726.933,369.693 726.933,380.407C726.933,381.448 727.441,382.448 728.345,383.184C729.249,383.921 730.475,384.335 731.754,384.335C735.955,384.335 742.016,384.335 746.217,384.335C747.495,384.335 748.721,383.921 749.625,383.184C750.53,382.448 751.037,381.448 751.037,380.407C751.037,369.693 751.037,340.054 751.037,329.341Z" style="fill:rgb(66,133,244);"/>
        </g>
        <g transform="matrix(1.03715,0,0,1.83048,104.524,-291.517)">
            <path d="M751.037,328.144C751.037,326.635 748.879,325.412 746.217,325.412C742.016,325.412 735.955,325.412 731.754,325.412C729.091,325.412 726.933,326.635 726.933,328.144C726.933,338.01 726.933,371.737 726.933,381.603C726.933,383.112 729.091,384.335 731.754,384.335C735.955,384.335 742.016,384.335 746.217,384.335C748.879,384.335 751.037,383.112 751.037,381.603C751.037,371.737 751.037,338.01 751.037,328.144Z" style="fill:rgb(66,133,244);"/>
        </g>
    </g>
</svg>
