<?xml version="1.0" encoding="UTF-8" standalone="no"?>
<!DOCTYPE svg PUBLIC "-//W3C//DTD SVG 1.1//EN" "http://www.w3.org/Graphics/SVG/1.1/DTD/svg11.dtd">
<svg width="100%" height="100%" viewBox="0 0 273 256" version="1.1" xmlns="http://www.w3.org/2000/svg" xmlns:xlink="http://www.w3.org/1999/xlink" xml:space="preserve" xmlns:serif="http://www.serif.com/" style="fill-rule:evenodd;clip-rule:evenodd;stroke-linejoin:round;stroke-miterlimit:2;">
    <g transform="matrix(1,0,0,1,-375.672,-256.329)">
        <g transform="matrix(2.45538,0,0,2.00894,-1409.22,-260.436)">
            <path d="M751.037,327.901C751.037,327.241 750.823,326.608 750.441,326.141C750.059,325.675 749.541,325.412 749.001,325.412C744.454,325.412 733.517,325.412 728.969,325.412C728.429,325.412 727.911,325.675 727.529,326.141C727.147,326.608 726.933,327.241 726.933,327.901C726.933,337.523 726.933,372.224 726.933,381.846C726.933,382.506 727.147,383.139 727.529,383.606C727.911,384.073 728.429,384.335 728.969,384.335C733.517,384.335 744.454,384.335 749.001,384.335C749.541,384.335 750.059,384.073 750.441,383.606C750.823,383.139 751.037,382.506 751.037,381.846C751.037,372.224 751.037,337.523 751.037,327.901Z" style="fill:rgb(66,133,244);"/>
        </g>
        <g transform="matrix(2.45538,0,0,3.01342,-1302.49,-646.49)">
            <path d="M751.037,327.072C751.037,326.632 750.823,326.21 750.441,325.898C750.059,325.587 749.541,325.412 749.001,325.412C744.454,325.412 733.517,325.412 728.969,325.412C728.429,325.412 727.911,325.587 727.529,325.898C727.147,326.21 726.933,326.632 726.933,327.072C726.933,335.572 726.933,374.175 726.933,382.676C726.933,383.116 727.147,383.538 727.529,383.849C727.911,384.16 728.429,384.335 728.969,384.335C733.517,384.335 744.454,384.335 749.001,384.335C749.541,384.335 750.059,384.16 750.441,383.849C750.823,383.538 751.037,383.116 751.037,382.676C751.037,374.175 751.037,335.572 751.037,327.072Z" style="fill:rgb(66,133,244);"/>
        </g>
        <g transform="matrix(2.45538,0,0,4.33354,-1195.75,-1153.86)">
            <path d="M751.037,326.566C751.037,325.929 750.126,325.412 749.001,325.412L728.969,325.412C727.845,325.412 726.933,325.929 726.933,326.566C726.933,334.055 726.933,375.692 726.933,383.181C726.933,383.818 727.845,384.335 728.969,384.335L749.001,384.335C750.126,384.335 751.037,383.818 751.037,383.181C751.037,375.692 751.037,334.055 751.037,326.566Z" style="fill:rgb(66,133,244);"/>
        </g>
    </g>
</svg>
